PathFileType	4	(X/Y/Z)	c:\Git\powerlifing_model_clean\simulations\HC835B\Session1\HC835B_CUT_0005\marker_experimental.trc
DataRate	CameraRate	NumFrames	NumMarkers	Units	OrigDataRate	OrigDataStartFrame	OrigNumFrames
240.000000	240.000000	4	38	mm	240.000000	46	75
Frame#	Time	RPSI			LPSI			RASI			LASI			RTH1			RTH2			RTH3			RTH4			RSK1			RSK2			RSK3			RSK4			RCAL1			RCAL2			RCAL3			RST			RPT			RTN			RFMB			RSMB			RVMB			RFMH			RSMH			RVMH			RPM			LTH1			LTH2			LTH3			LTH4			LSK1			LSK2			LSK3			LSK4			LCAL1			LCAL2			LCAL3			LFMH			LVMH			
		X1	Y1	Z1	X2	Y2	Z2	X3	Y3	Z3	X4	Y4	Z4	X5	Y5	Z5	X6	Y6	Z6	X7	Y7	Z7	X8	Y8	Z8	X9	Y9	Z9	X10	Y10	Z10	X11	Y11	Z11	X12	Y12	Z12	X13	Y13	Z13	X14	Y14	Z14	X15	Y15	Z15	X16	Y16	Z16	X17	Y17	Z17	X18	Y18	Z18	X19	Y19	Z19	X20	Y20	Z20	X21	Y21	Z21	X22	Y22	Z22	X23	Y23	Z23	X24	Y24	Z24	X25	Y25	Z25	X26	Y26	Z26	X27	Y27	Z27	X28	Y28	Z28	X29	Y29	Z29	X30	Y30	Z30	X31	Y31	Z31	X32	Y32	Z32	X33	Y33	Z33	X34	Y34	Z34	X35	Y35	Z35	X36	Y36	Z36	X37	Y37	Z37	X38	Y38	Z38	

47	0.1916666666666667	75.40013122558595	1017.062072753906	-636.2433471679689	2.608138084411622	977.8460693359377	-576.5697021484376	50.35227203369142	953.2830810546877	-849.9306640625002	-146.4448394775391	880.5590820312502	-701.2353515625001	258.1554260253907	740.4219360351564	-794.0593872070315	233.513656616211	711.8406372070314	-841.315856933594	277.2843017578126	658.6659545898439	-803.9866333007815	246.1508331298829	627.3583374023439	-842.502868652344	501.5982971191407	312.8860168457032	-633.1174316406251	492.0078735351564	270.6063537597657	-677.2783813476564	524.3664550781251	259.1837463378907	-626.6959228515626	506.1348266601564	215.2717285156251	-663.3209838867189	596.1464233398439	138.7151031494141	-508.3372802734376	570.1739501953126	98.82309722900393	-490.9468078613282	630.2995605468751	104.6947631835938	-516.7547607421876	526.6968383789064	87.51977539062501	-547.5961914062501	629.0029907226564	101.1665802001953	-581.3458862304689	514.1551513671876	89.26152801513673	-608.3301391601564	510.8634643554689	74.77194213867189	-639.8269042968751	549.1917114257814	97.64559173583987	-667.8490600585939	627.8978881835939	64.21514892578126	-619.0853271484376	498.9215087890626	47.5388526916504	-681.9533691406251	542.4020385742189	54.10948562622072	-719.1967773437501	616.0192871093751	34.57704162597657	-693.2310791015626	509.9728393554689	36.31184005737305	-765.1668090820314	0	0	0	0	0	0	-200.5446472167969	614.1669311523439	-837.2149047851565	-226.4145812988282	650.4785766601564	-877.0986328125002	24.78180694580079	378.0266113281251	-821.9133300781252	29.79714393615723	335.7015991210938	-850.3466796875002	65.58996582031251	336.6198425292969	-816.8887329101565	77.91629791259767	303.5704650878907	-863.681091308594	220.4946594238282	308.8346557617188	-743.7631835937501	223.9336853027344	265.7105712890626	-722.1807861328126	266.0923461914063	296.4467773437501	-749.2625732421876	230.477523803711	200.0542297363282	-946.581237792969	182.2584991455078	142.6223907470703	-865.7739257812502	
48	0.1958333333333333	68.28160095214845	1018.579406738281	-657.1985473632814	-4.6009840965271	979.4539184570315	-596.7874755859376	41.87604522705079	952.9697875976565	-869.4746093750002	-154.9182586669922	882.9014282226565	-720.7408447265626	251.4818878173829	742.4895019531251	-807.4638671875002	227.0255126953126	712.2406616210939	-853.7332153320315	271.6289062500001	660.6345214843751	-815.1047363281252	240.2269744873047	627.8508911132814	-852.1793212890627	499.9456481933595	318.2287902832032	-637.5514526367189	490.1933898925782	275.5870361328126	-681.3677368164064	522.8052368164064	264.6580505371094	-630.9318847656251	504.2276916503907	220.207992553711	-666.8013916015626	594.4422607421876	145.5419158935547	-511.7290344238282	568.5574951171876	106.1236572265625	-493.6603088378907	628.7225952148439	111.3498916625977	-519.3078613281251	525.6549682617189	93.88699340820314	-550.1873168945314	627.8409423828126	105.9737625122071	-583.6613159179689	513.5914306640626	93.68653869628908	-611.1158447265626	510.5355834960939	77.23908996582033	-641.5949096679689	548.9244995117189	99.23814392089847	-670.3096923828126	627.0226440429689	67.48169708251955	-620.2733154296876	498.5596008300782	47.83349609375001	-682.4517211914064	542.2748413085939	53.6205177307129	-719.9198608398439	615.7852172851564	35.15301895141602	-693.4007568359376	509.7554321289064	36.47237396240235	-764.9443969726564	0	0	0	0	0	0	-209.7299346923829	618.4962158203126	-857.4572753906252	-235.2041778564454	656.7417602539064	-898.1941528320315	15.10281085968018	371.7815551757813	-855.546569824219	18.11144638061524	330.6429138183594	-886.0652465820315	53.12548828125001	331.0718688964844	-852.8601074218752	65.44281005859376	297.3137817382813	-900.0679321289065	211.064926147461	294.1965026855469	-785.5361938476565	213.6987609863282	250.757797241211	-765.9389038085939	256.1828613281251	280.6252441406251	-793.2127685546877	212.2888183593751	194.7071533203126	-994.1028442382815	164.9676208496094	134.7632141113282	-914.6370849609377	
49	0.2	61.27548217773439	1020.071594238281	-678.2105712890626	-11.99076557159424	981.083923339844	-616.9721679687501	32.50264358520509	952.377380371094	-888.0366210937502	-163.3304595947266	885.043640136719	-740.4274902343751	244.8000183105469	744.7702026367189	-821.4041137695315	220.1629333496094	712.7290649414064	-866.4833984375002	265.5215148925782	662.8688964843751	-826.5885009765627	233.9598693847657	628.4757080078126	-862.0794677734377	497.7591247558595	324.1864013671876	-642.4188232421876	488.0233154296876	281.2978515625001	-685.9317016601564	520.7442016601564	270.7256774902344	-635.4432983398439	502.3908691406251	226.0081329345704	-671.1218872070314	592.3000488281251	153.564208984375	-515.6409301757814	566.2292480468751	114.1609344482422	-496.8717651367189	626.3929443359376	118.6571350097657	-522.2340087890626	524.1058959960939	100.5493240356446	-553.5026245117189	625.9923095703126	111.171142578125	-586.2539672851564	512.6127319335939	98.5732116699219	-614.3619384765626	509.9989318847657	79.9549026489258	-643.9560546875001	548.4948730468751	100.6925354003907	-673.2863769531251	625.6637573242189	71.15177154541017	-621.6445922851564	498.1648864746095	48.13455963134767	-682.9389038085939	542.0535278320314	53.02638244628908	-720.8201904296876	615.5637817382814	35.8316993713379	-693.4966430664064	509.5807495117189	36.62876129150391	-764.6888427734376	0	0	0	0	0	0	-218.2632293701172	622.5496826171876	-877.755065917969	-244.4344329833985	661.3225097656251	-917.6534423828127	5.329278945922852	365.5505371093751	-889.1473388671877	6.156594753265383	325.8110961914063	-921.3311767578127	43.62379837036134	322.3934020996094	-889.8937988281252	52.17368316650392	291.5287170410157	-937.7986450195315	201.2038116455079	279.6443176269532	-828.6937255859377	203.2951660156251	235.2919158935547	-811.1075439453127	245.780014038086	265.3852233886719	-838.6602783203127	193.2511749267579	189.7323303222657	-1041.407836914063	146.8259582519532	127.4174957275391	-963.2922363281252	
50	0.2041666666666667	54.18740844726564	1021.594604492188	-699.3132324218751	-19.58210372924805	982.7151489257815	-637.0739746093751	23.15666198730469	952.0125122070315	-907.3635864257815	-171.9953918457032	886.8479003906252	-760.1589355468751	237.7139129638672	747.1838378906251	-835.866394042969	213.1300506591797	713.4733276367189	-879.8073730468752	259.2669372558594	665.4058227539064	-838.6187744140627	227.3160247802735	629.5366821289064	-872.3255615234377	495.1247863769532	330.7435607910157	-647.6910400390626	485.4801330566407	287.6310119628907	-691.0836791992189	518.2140502929689	277.3182067871094	-640.5296020507814	500.2121887207032	232.4868774414063	-676.1282958984376	588.9607543945314	161.3768768310547	-520.2603149414064	562.9948730468751	122.5598831176758	-500.5753479003907	623.1823730468751	126.4363784790039	-525.6585693359376	522.1268310546876	107.8399429321289	-557.3981933593751	623.4644775390626	116.6553802490235	-589.1396484375001	511.238006591797	103.7740097045899	-618.3364257812501	509.1872558593751	82.60694885253908	-646.5611572265626	547.8900756835939	102.3130416870117	-676.7115478515626	623.9590454101564	75.0630340576172	-623.1185302734376	497.6040344238282	48.14739990234376	-683.5200805664064	541.5794677734376	52.29493331909181	-721.5921630859376	615.1726684570314	36.65362167358399	-693.4915771484376	509.4822692871095	36.95196151733399	-764.4331665039064	0	0	0	0	0	0	-226.3880920410157	626.2247924804689	-897.8872680664065	-253.5043487548829	665.2761840820314	-936.9743652343752	-4.532838821411134	359.2946472167969	-922.826599121094	-5.90667486190796	320.9258728027344	-956.7248535156252	32.37209701538087	315.9336242675782	-926.3331298828127	38.73442459106446	285.0772705078126	-973.651062011719	191.0909881591797	265.4806518554688	-873.132507324219	192.5633544921876	220.2860107421876	-857.2425537109377	234.6022186279297	250.5791778564454	-884.7918090820315	173.3289642333985	185.0983581542969	-1088.432495117188	127.7765197753907	120.7261505126953	-1011.383666992188	
